# File created by Blade
# Date/Time:  Tue Jan 27 19:18:50 2015
#---------------------------------------------------------
:version 1.10
:name HOM
:units
  mass 1.0
  length 1.000000
  angle deg
:documentation
     Acclaim Skeleton File
:root
   axis xyz
   order TX TY TZ RX RY RZ
   position 0.000000 0.000000 0.000000
   orientation 0 0 0
:bonedata
   begin
      id 1
      name Spine_dum
      direction 0.000000 1.000000 0.000000
      length 6.116652
      axis 0.0 0.0 0.0 xyz
   end
   begin
      id 2
      name LeftUpLeg_dum
      direction 1.000000 0.000000 0.000000
      length 4.711765
      axis 0.0 0.0 0.0 xyz
   end
   begin
      id 3
      name RightUpLeg_dum
      direction -1.000000 0.000000 0.000000
      length 4.711765
      axis 0.0 0.0 0.0 xyz
   end
   begin
      id 4
      name Spine
      direction 0.000000 1.000000 0.000000
      length 0.000000
      axis 0.0 0.0 0.0 xyz
      dof rx ry rz
   end
   begin
      id 5
      name Spine_dum1
      direction 0.000000 1.000000 0.000000
      length 15.225563
      axis 0.0 0.0 0.0 xyz
   end
   begin
      id 6
      name Spine_dum2
      direction 0.000000 1.000000 0.000000
      length 8.977654
      axis 0.0 0.0 0.0 xyz
   end
   begin
      id 7
      name Spine_dum3
      direction 0.000000 1.000000 0.000000
      length 8.977654
      axis 0.0 0.0 0.0 xyz
   end
   begin
      id 8
      name Head
      direction 0.000000 1.000000 0.000000
      length 4.527550
      axis 0.0 0.0 0.0 xyz
      dof rx ry rz
   end
   begin
      id 9
      name LeftShoulder
      direction 1.000000 0.000000 0.000000
      length 7.110130
      axis 0.0 0.0 -90.0 xyz
      dof rx ry rz
   end
   begin
      id 10
      name LeftArm
      direction 1.000000 0.000000 0.000000
      length 10.398341
      axis 0.0 0.0 -90.0 xyz
      dof rx ry rz
   end
   begin
      id 11
      name LeftForeArm
      direction 1.000000 0.000000 0.000000
      length 8.888997
      axis 0.0 0.0 -90.0 xyz
      dof ry rz rx
   end
   begin
      id 12
      name LeftHand
      direction 0.000000 0.000000 0.000000
      length 0.000000
      axis 0.0 0.0 -90.0 xyz
      dof rx ry rz
   end
   begin
      id 13
      name LeftHand_dum1
      direction 0.000000 0.000000 0.000000
      length 0.000000
      axis 0.0 0.0 -90.0 xyz
   end
   begin
      id 14
      name LeftHand_dum2
      direction 1.000000 0.000000 0.000000
      length 3.937000
      axis 0.0 0.0 -90.0 xyz
   end
   begin
      id 15
      name LeftHandThumb1
      direction 0.000000 0.000000 1.000000
      length 3.937000
      axis 0.0 0.0 -90.0 xyz
      dof rx rz ry
   end
   begin
      id 16
      name RightShoulder
      direction -1.000000 0.000000 0.000000
      length 7.110130
      axis 0.0 0.0 90.0 xyz
      dof rx ry rz
   end
   begin
      id 17
      name RightArm
      direction -1.000000 0.000000 0.000000
      length 10.398341
      axis 0.0 0.0 90.0 xyz
      dof rx ry rz
   end
   begin
      id 18
      name RightForeArm
      direction -1.000000 0.000000 0.000000
      length 8.888997
      axis 0.0 0.0 90.0 xyz
      dof ry rz rx
   end
   begin
      id 19
      name RightHand
      direction 0.000000 0.000000 0.000000
      length 0.000000
      axis 0.0 0.0 90.0 xyz
      dof rx ry rz
   end
   begin
      id 20
      name RightHand_dum1
      direction 0.000000 0.000000 0.000000
      length 0.000000
      axis 0.0 0.0 90.0 xyz
   end
   begin
      id 21
      name RightHand_dum2
      direction -1.000000 0.000000 0.000000
      length 3.937000
      axis 0.0 0.0 90.0 xyz
   end
   begin
      id 22
      name RightHandThumb1
      direction 0.000000 0.000000 1.000000
      length 3.937000
      axis 0.0 0.0 90.0 xyz
      dof rx rz ry
   end
   begin
      id 23
      name LeftUpLeg
      direction 0.000000 -1.000000 0.000000
      length 15.510451
      axis 0.0 0.0 0.0 xyz
      dof rx ry rz
   end
   begin
      id 24
      name LeftLeg
      direction 0.000000 -1.000000 0.000000
      length 14.858061
      axis 0.0 0.0 0.0 xyz
      dof rx ry rz
   end
   begin
      id 25
      name LeftFoot
      direction 0.000000 -0.258819 0.965926
      length 5.128852
      axis 15.0 0.0 0.0 xyz
      dof rx ry rz
   end
   begin
      id 26
      name LeftToeBase
      direction 0.000000 0.000000 1.000000
      length 2.952750
      axis 0.0 0.0 0.0 xyz
      dof rx ry rz
   end
   begin
      id 27
      name RightUpLeg
      direction 0.000000 -1.000000 0.000000
      length 15.510451
      axis 0.0 0.0 0.0 xyz
      dof rx ry rz
   end
   begin
      id 28
      name RightLeg
      direction 0.000000 -1.000000 0.000000
      length 14.858061
      axis 0.0 0.0 0.0 xyz
      dof rx ry rz
   end
   begin
      id 29
      name RightFoot
      direction 0.000000 -0.258819 0.965926
      length 5.128852
      axis 15.0 0.0 0.0 xyz
      dof rx ry rz
   end
   begin
      id 30
      name RightToeBase
      direction 0.000000 0.000000 1.000000
      length 2.952750
      axis 0.0 0.0 0.0 xyz
      dof rx ry rz
   end
:hierarchy
   begin
      root Spine_dum LeftUpLeg_dum RightUpLeg_dum
      Spine_dum Spine
      LeftUpLeg_dum LeftUpLeg
      RightUpLeg_dum RightUpLeg
      Spine Spine_dum1 Spine_dum2 Spine_dum3
      Spine_dum1 Head
      Spine_dum2 LeftShoulder
      Spine_dum3 RightShoulder
      LeftShoulder LeftArm
      LeftArm LeftForeArm
      LeftForeArm LeftHand
      LeftHand LeftHand_dum1 LeftHand_dum2
      LeftHand_dum1 LeftHandThumb1
      RightShoulder RightArm
      RightArm RightForeArm
      RightForeArm RightHand
      RightHand RightHand_dum1 RightHand_dum2
      RightHand_dum1 RightHandThumb1
      LeftUpLeg LeftLeg
      LeftLeg LeftFoot
      LeftFoot LeftToeBase
      RightUpLeg RightLeg
      RightLeg RightFoot
      RightFoot RightToeBase
   end

# File created by Blade
# Date/Time:  Tue Jan 27 19:18:41 2015
# Frame Rate: 120.000 fps
#------------------------------------------------------
:FULLY-SPECIFIED
:DEGREES
1168
root 4.110612 32.366608 1.143294 -2.851259 5.560879 1.152774
Spine -0.520039 18.729105 0.606003
Head 2.886488 -22.426040 -15.490840
LeftShoulder -3.808803 -8.847584 20.425077
LeftArm -5.153739 42.653598 -101.685505
LeftForeArm 3.054724 -0.000000 14.664678
LeftHand 10.901324 -0.000000 -6.085915
LeftHandThumb1 -26.253704 0.000000 33.147579
RightShoulder 0.035130 22.657869 -47.099813
RightArm 84.551945 52.935899 113.472066
RightForeArm 28.408931 -0.000000 130.337644
RightHand 33.766132 -0.000000 -28.424922
RightHandThumb1 -24.326973 -0.000000 -32.862282
LeftUpLeg 8.930141 -4.373457 -1.724364
LeftLeg 2.577144 -0.000000 -0.000000
LeftFoot -16.869430 12.607540 -22.507845
LeftToeBase 16.660883 -0.000000 -0.000000
RightUpLeg 10.063050 -11.746763 0.044921
RightLeg -0.605805 -0.000000 0.000000
RightFoot -12.837244 -15.030917 14.196043
RightToeBase 9.990217 -0.000000 -0.000000
1169
root 4.109544 32.365439 1.143584 -2.868321 5.563678 1.146211
Spine -0.487551 18.703463 0.605792
Head 2.878239 -22.433691 -15.449978
LeftShoulder -3.818288 -8.873353 20.426993
LeftArm -5.151744 42.650550 -101.708003
LeftForeArm 2.964155 -0.000000 14.565480
LeftHand 10.996834 -0.000000 -6.469449
LeftHandThumb1 -26.253704 0.000000 33.147579
RightShoulder -0.000199 22.537604 -47.106773
RightArm 84.132975 52.841328 112.965655
RightForeArm 28.258039 -0.000000 128.699073
RightHand 33.620223 -0.000000 -28.028066
RightHandThumb1 -24.326973 -0.000000 -32.862282
LeftUpLeg 8.945294 -4.368912 -1.715792
LeftLeg 2.580348 -0.000000 -0.000000
LeftFoot -16.874177 12.600109 -22.494378
LeftToeBase 16.640375 -0.000000 -0.000000
RightUpLeg 10.071124 -11.725909 0.048925
RightLeg -0.574581 -0.000000 0.000000
RightFoot -12.975983 -15.015406 14.388950
RightToeBase 10.371550 -0.000000 -0.000000
1170
root 4.109450 32.365068 1.143421 -2.878280 5.564407 1.142519
Spine -0.465758 18.680773 0.609146
Head 2.928215 -22.324838 -15.423947
LeftShoulder -3.830645 -8.869947 20.451071
LeftArm -5.138564 42.658514 -101.739939
LeftForeArm 3.036518 0.000000 14.525205
LeftHand 10.861725 -0.000000 -6.283508
LeftHandThumb1 -26.253704 0.000000 33.147579
RightShoulder -0.037593 22.426862 -47.126527
RightArm 83.706297 52.765304 112.475829
RightForeArm 27.896307 -0.000000 126.928902
RightHand 33.419854 -0.000000 -26.764523
RightHandThumb1 -24.326973 -0.000000 -32.862282
LeftUpLeg 8.948572 -4.375049 -1.715114
LeftLeg 2.592974 -0.000000 -0.000000
LeftFoot -16.890421 12.603693 -22.506568
LeftToeBase 16.653484 -0.000000 -0.000000
RightUpLeg 10.071050 -11.727678 0.049126
RightLeg -0.554446 -0.000000 0.000000
RightFoot -13.010588 -15.005096 14.445724
RightToeBase 10.433559 -0.000000 -0.000000
1171
root 4.109221 32.363963 1.143472 -2.898804 5.556910 1.139002
Spine -0.442738 18.655642 0.607542
Head 2.953449 -22.297871 -15.360451
LeftShoulder -3.848310 -8.861568 20.475639
LeftArm -5.111935 42.678434 -101.767876
LeftForeArm 3.039768 -0.000000 14.454212
LeftHand 10.848464 -0.000000 -6.201346
LeftHandThumb1 -26.253704 0.000000 33.147579
RightShoulder -0.078501 22.304549 -47.138842
RightArm 83.195699 52.663341 111.861624
RightForeArm 27.163584 0.000000 125.045631
RightHand 33.161506 -0.000000 -26.709498
RightHandThumb1 -24.326973 -0.000000 -32.862282
LeftUpLeg 8.965289 -4.345519 -1.708712
LeftLeg 2.601511 -0.000000 -0.000000
LeftFoot -16.900889 12.580891 -22.493072
LeftToeBase 16.666217 -0.000000 -0.000000
RightUpLeg 10.086572 -11.721083 0.049981
RightLeg -0.547975 -0.000000 0.000000
RightFoot -13.016264 -15.003524 14.441646
RightToeBase 10.412742 -0.000000 -0.000000
1172
root 4.108330 32.362547 1.143471 -2.918119 5.557747 1.132161
Spine -0.422550 18.614157 0.608279
Head 2.978609 -22.245752 -15.292526
LeftShoulder -3.861715 -8.859371 20.490768
LeftArm -5.105483 42.664192 -101.791748
LeftForeArm 2.904547 -0.000000 14.391924
LeftHand 11.065808 -0.000000 -5.752810
LeftHandThumb1 -26.253704 0.000000 33.147579
RightShoulder -0.117232 22.152752 -47.145562
RightArm 82.674262 52.568895 111.208937
RightForeArm 26.542971 -0.000000 123.051309
RightHand 32.828100 -0.000000 -25.497148
RightHandThumb1 -24.326973 -0.000000 -32.862282
LeftUpLeg 8.978227 -4.357420 -1.705478
LeftLeg 2.621110 -0.000000 -0.000000
LeftFoot -16.915276 12.521967 -22.662198
LeftToeBase 16.439237 -0.000000 -0.000000
RightUpLeg 10.101521 -11.733467 0.051052
RightLeg -0.537629 -0.000000 0.000000
RightFoot -13.023242 -14.976816 14.454541
RightToeBase 10.384872 -0.000000 -0.000000
1173
root 4.107914 32.360943 1.144117 -2.938923 5.542637 1.126554
Spine -0.409313 18.581616 0.606069
Head 3.040692 -22.168655 -15.220127
LeftShoulder -3.873529 -8.860527 20.523085
LeftArm -5.124380 42.642878 -101.843985
LeftForeArm 2.929566 -0.000000 14.354483
LeftHand 11.051348 -0.000000 -5.703150
LeftHandThumb1 -26.253704 0.000000 33.147579
RightShoulder -0.150612 21.990963 -47.149407
RightArm 82.084115 52.468382 110.428351
RightForeArm 25.857743 -0.000000 120.950139
RightHand 32.479117 -0.000000 -24.970601
RightHandThumb1 -24.326973 -0.000000 -32.862282
LeftUpLeg 9.002040 -4.336460 -1.698223
LeftLeg 2.616196 -0.000000 -0.000000
LeftFoot -16.947526 12.561830 -22.518431
LeftToeBase 16.636042 -0.000000 -0.000000
RightUpLeg 10.113863 -11.703541 0.057772
RightLeg -0.523774 -0.000000 0.000000
RightFoot -13.039264 -14.994875 14.446344
RightToeBase 10.365761 -0.000000 -0.000000
1174
root 4.108149 32.359804 1.144151 -2.961645 5.526836 1.121694
Spine -0.396696 18.532364 0.605356
Head 3.111923 -22.088610 -15.151837
LeftShoulder -3.893975 -8.822701 20.547313
LeftArm -5.102796 42.613548 -101.861599
LeftForeArm 2.990085 -0.000000 14.326974
LeftHand 11.055245 -0.000000 -5.729535
LeftHandThumb1 -26.253704 0.000000 33.147579
RightShoulder -0.187049 21.873313 -47.151591
RightArm 81.294635 52.350772 109.401054
RightForeArm 25.057892 -0.000000 118.733067
RightHand 32.134767 -0.000000 -24.881351
RightHandThumb1 -24.326973 -0.000000 -32.862282
LeftUpLeg 9.022909 -4.318204 -1.695703
LeftLeg 2.622970 -0.000000 -0.000000
LeftFoot -16.953623 12.580322 -22.473201
LeftToeBase 16.687712 -0.000000 -0.000000
RightUpLeg 10.128413 -11.693507 0.056590
RightLeg -0.510376 -0.000000 0.000000
RightFoot -13.065579 -14.975873 14.493222
RightToeBase 10.396270 -0.000000 -0.000000
1175
root 4.107338 32.357501 1.145328 -2.985799 5.500840 1.112759
Spine -0.399762 18.498451 0.595138
Head 3.190452 -22.078133 -15.026548
LeftShoulder -3.891602 -8.800597 20.597957
LeftArm -5.118570 42.550354 -101.917336
LeftForeArm 3.037485 -0.000000 14.305712
LeftHand 11.078755 -0.000000 -5.695192
LeftHandThumb1 -26.253704 0.000000 33.147579
RightShoulder -0.200218 21.734047 -47.141194
RightArm 80.506840 52.255362 108.314536
RightForeArm 24.507285 -0.000000 116.403932
RightHand 31.885278 -0.000000 -24.839062
RightHandThumb1 -24.326973 -0.000000 -32.862282
LeftUpLeg 9.054957 -4.313072 -1.689468
LeftLeg 2.619188 -0.000000 -0.000000
LeftFoot -16.976462 12.584130 -22.491867
LeftToeBase 16.549456 -0.000000 -0.000000
RightUpLeg 10.145186 -11.667841 0.064524
RightLeg -0.499749 -0.000000 0.000000
RightFoot -13.069460 -14.978548 14.470690
RightToeBase 10.346302 -0.000000 -0.000000
1176
root 4.106933 32.357435 1.145433 -3.013376 5.470189 1.103764
Spine -0.375396 18.476846 0.599772
Head 3.250057 -21.983062 -14.965882
LeftShoulder -3.911210 -8.753305 20.618828
LeftArm -5.077918 42.535314 -101.916734
LeftForeArm 3.060695 -0.000000 14.299739
LeftHand 11.085713 -0.000000 -5.646310
LeftHandThumb1 -26.253704 0.000000 33.147579
RightShoulder -0.262438 21.582817 -47.168894
RightArm 79.687758 52.103538 107.165202
RightForeArm 24.100382 -0.000000 114.028451
RightHand 31.372298 0.000000 -24.899059
RightHandThumb1 -24.326973 -0.000000 -32.862282
LeftUpLeg 9.082717 -4.272567 -1.679058
LeftLeg 2.623642 -0.000000 -0.000000
LeftFoot -16.987908 12.564981 -22.487487
LeftToeBase 16.632620 -0.000000 -0.000000
RightUpLeg 10.159388 -11.658561 0.066679
RightLeg -0.482282 -0.000000 0.000000
RightFoot -13.070491 -14.952850 14.482791
RightToeBase 10.351338 -0.000000 -0.000000
1177
root 4.106457 32.356533 1.145924 -3.039584 5.442919 1.098219
Spine -0.368121 18.435168 0.593728
Head 3.327444 -21.933731 -14.865769
LeftShoulder -3.908813 -8.727949 20.651018
LeftArm -5.100769 42.486766 -101.956605
LeftForeArm 3.045583 -0.000000 14.306604
LeftHand 11.094212 -0.000000 -5.639910
LeftHandThumb1 -26.253704 0.000000 33.147579
RightShoulder -0.320136 21.366796 -47.188215
RightArm 78.975601 51.900823 106.098972
RightForeArm 23.794569 0.000000 111.512966
RightHand 30.901147 -0.000000 -24.498878
RightHandThumb1 -24.326973 -0.000000 -32.862282
LeftUpLeg 9.111958 -4.249884 -1.675057
LeftLeg 2.627310 -0.000000 -0.000000
LeftFoot -17.007930 12.572089 -22.491392
LeftToeBase 16.558592 -0.000000 -0.000000
RightUpLeg 10.172640 -11.637168 0.069482
RightLeg -0.462828 -0.000000 0.000000
RightFoot -13.071557 -14.956283 14.464874
RightToeBase 10.317265 -0.000000 -0.000000
1178
root 4.106418 32.355184 1.145286 -3.061095 5.408133 1.095693
Spine -0.356660 18.387363 0.586639
Head 3.360099 -21.873289 -14.751603
LeftShoulder -3.935764 -8.699282 20.690786
LeftArm -5.116115 42.465173 -102.000197
LeftForeArm 3.036987 -0.000000 14.317108
LeftHand 11.069048 -0.000000 -5.620747
LeftHandThumb1 -26.253704 0.000000 33.147579
RightShoulder -0.375367 21.241425 -47.210729
RightArm 78.142661 51.682764 104.865880
RightForeArm 23.758796 0.000000 108.862626
RightHand 30.704464 0.000000 -24.404950
RightHandThumb1 -24.326973 -0.000000 -32.862282
LeftUpLeg 9.133767 -4.248903 -1.679814
LeftLeg 2.635345 -0.000000 -0.000000
LeftFoot -17.034700 12.610960 -22.488447
LeftToeBase 16.569524 -0.000000 -0.000000
RightUpLeg 10.176982 -11.596999 0.070628
RightLeg -0.439855 -0.000000 0.000000
RightFoot -13.103137 -14.941762 14.499094
RightToeBase 10.365127 -0.000000 -0.000000
1179
root 4.105514 32.355145 1.144818 -3.091089 5.363514 1.082652
Spine -0.347318 18.344167 0.588792
Head 3.466509 -21.813195 -14.669071
LeftShoulder -3.948439 -8.657291 20.721981
LeftArm -5.120123 42.440220 -102.027139
LeftForeArm 3.050360 -0.000000 14.327549
LeftHand 11.095168 -0.000000 -5.590674
LeftHandThumb1 -26.253704 0.000000 33.147579
RightShoulder -0.416258 21.068706 -47.224962
RightArm 77.477216 51.427963 103.779404
RightForeArm 23.930363 0.000000 106.134295
RightHand 30.518642 -0.000000 -23.875767
RightHandThumb1 -24.326973 -0.000000 -32.862282
LeftUpLeg 9.161401 -4.221292 -1.669224
LeftLeg 2.655464 -0.000000 -0.000000
LeftFoot -17.076949 12.604382 -22.513668
LeftToeBase 16.542824 -0.000000 -0.000000
RightUpLeg 10.189035 -11.568994 0.080744
RightLeg -0.422069 -0.000000 0.000000
RightFoot -13.097891 -14.928844 14.513003
RightToeBase 10.326735 -0.000000 -0.000000
1180
root 4.104883 32.354118 1.144118 -3.116823 5.315641 1.073804
Spine -0.342730 18.312613 0.585623
Head 3.514998 -21.767589 -14.529897
LeftShoulder -3.944973 -8.616179 20.755813
LeftArm -5.126414 42.427229 -102.059293
LeftForeArm 3.021999 0.000000 14.342891
LeftHand 11.100324 -0.000000 -5.543215
LeftHandThumb1 -26.253704 0.000000 33.147579
RightShoulder -0.493462 20.844528 -47.273684
RightArm 76.908918 51.150200 102.800773
RightForeArm 24.144838 -0.000000 103.333049
RightHand 30.251469 0.000000 -23.065507
RightHandThumb1 -24.326973 -0.000000 -32.862282
LeftUpLeg 9.186242 -4.198901 -1.662224
LeftLeg 2.661953 -0.000000 -0.000000
LeftFoot -17.114838 12.598080 -22.560558
LeftToeBase 16.695450 -0.000000 -0.000000
RightUpLeg 10.196223 -11.541241 0.093779
RightLeg -0.418338 -0.000000 0.000000
RightFoot -12.943147 -14.967100 14.241778
RightToeBase 9.821496 -0.000000 -0.000000
